<?xml version="1.0" standalone="no"?><!DOCTYPE svg PUBLIC "-//W3C//DTD SVG 1.1//EN" "http://www.w3.org/Graphics/SVG/1.1/DTD/svg11.dtd"><svg t="1560793750589" class="icon" style="" viewBox="0 0 1024 1024" version="1.1" xmlns="http://www.w3.org/2000/svg" p-id="3748" xmlns:xlink="http://www.w3.org/1999/xlink" width="200" height="200"><defs><style type="text/css"></style></defs><path d="M597.6289 773.3146l20.1503 0 0 3.4765-20.1503 0 0-3.4765ZM686.2828 751.8065l4.9859 0 0 16.1178-4.9859 0 0-16.1178ZM701.996 751.7061l5.0381 0 0 16.2181-5.0381 0 0-16.2181ZM597.6289 779.9142l20.1503 0 0 3.4744-20.1503 0 0-3.4744ZM160.0788 419.6884l701.8353 0 0 482.5303-701.8353 0 0-482.5303ZM927.7164 974.4527 94.283776 974.4527 94.283776 352.226304 927.716352 352.226304 927.716352 974.452736zM119.9606 948.7677l782.042112 0L902.002712 377.904128 119.960576 377.904128 119.960576 948.767744zM795.4319 334.9791 550.8055 139.2886 569.7905 115.5738 844.5594 334.9791ZM226.5528 334.9791 471.1875 139.2886 452.2189 115.5738 177.4264 334.9791ZM554.8462 83.5533c0 24.2463-19.6332 43.8733-43.8497 43.8733-24.2319 0-43.8804-19.627-43.8804-43.8733 0-24.2156 19.6485-43.8651 43.8804-43.8651C535.2131 39.6882 554.8462 59.3377 554.8462 83.5533z" p-id="3749"></path></svg>