<?xml version="1.0" standalone="no"?><!DOCTYPE svg PUBLIC "-//W3C//DTD SVG 1.1//EN" "http://www.w3.org/Graphics/SVG/1.1/DTD/svg11.dtd"><svg t="1582490002686" class="icon" viewBox="0 0 1024 1024" version="1.1" xmlns="http://www.w3.org/2000/svg" p-id="22672" xmlns:xlink="http://www.w3.org/1999/xlink" width="200" height="200"><defs><style type="text/css"></style></defs><path d="M809.938539 47.999712c0-26.499873-22.216467-47.999712-49.654804-47.999712-27.43936 0-49.655827 21.498817-49.655827 47.999712l0 96.000447c0 26.499873 22.216467 48.000735 49.655827 48.000735 27.438338 0 49.654804-21.500862 49.654804-48.000735L809.938539 47.999712z" p-id="22673"></path><path d="M561.656338 47.999712c0-26.499873-22.250202-47.999712-49.654804-47.999712-27.407669 0-49.656849 21.499839-49.656849 47.999712l0 96.000447c0 26.499873 22.250202 48.000735 49.656849 48.000735 27.406647 0 49.654804-21.500862 49.654804-48.000735L561.656338 47.999712z" p-id="22674"></path><path d="M313.374137 47.999712c0-26.499873-22.218511-47.999712-49.656849-47.999712-27.437316 0-49.655827 21.499839-49.655827 47.999712l0 96.000447c0 26.499873 22.218511 48.000735 49.655827 48.000735 27.438338 0 49.656849-21.500862 49.656849-48.000735L313.374137 47.999712z" p-id="22675"></path><path d="M942.347943 95.998403l-82.752555 0 0 48.000735c0 53.031437-44.469736 96.000447-99.311654 96.000447-54.843963 0-99.312676-42.970032-99.312676-96.000447L660.971058 95.998403l-49.655827 0 0 48.000735c0 53.031437-44.467691 96.000447-99.311654 96.000447s-99.312676-42.970032-99.312676-96.000447L412.690902 95.998403 363.033031 95.998403l0 48.000735c0 53.031437-44.437022 96.000447-99.311654 96.000447-54.841918 0-99.312676-42.970032-99.312676-96.000447L164.408701 95.998403 81.656146 95.998403c-27.438338 0-49.656849 21.500862-49.656849 48.000735l0 832.00115c0 26.500896 22.218511 47.999712 49.656849 47.999712l860.691797 0c27.435271 0 49.651738-21.498817 49.651738-47.999712L991.999681 144.00016C992.000703 117.500287 969.783214 95.998403 942.347943 95.998403zM305.281668 870.585546c0 22.490441-18.557681 40.700542-41.393657 40.700542-22.898336 0-41.425348-18.210101-41.425348-40.700542L222.462663 762.09677c0-22.457728 18.527012-40.667829 41.425348-40.667829 22.835976 0 41.393657 18.210101 41.393657 40.667829L305.281668 870.585546zM470.918654 870.585546c0 22.490441-18.528034 40.700542-41.394679 40.700542-22.898336 0-41.424325-18.210101-41.424325-40.700542l0-216.971418c0-22.45875 18.52599-40.670896 41.424325-40.670896 22.866645 0 41.394679 18.212146 41.394679 40.670896L470.918654 870.585546zM636.55564 870.585546c0 22.490441-18.495321 40.700542-41.393657 40.700542-22.866645 0-41.393657-18.210101-41.393657-40.700542L553.768327 545.126375c0-22.490441 18.527012-40.701564 41.393657-40.701564 22.898336 0 41.393657 18.211123 41.393657 40.701564L636.55564 870.585546zM802.224317 870.585546c0 22.490441-18.52599 40.700542-41.424325 40.700542-22.838021 0-41.393657-18.210101-41.393657-40.700542L719.406335 436.61102c0-22.457728 18.555636-40.669873 41.393657-40.669873 22.897313 0 41.424325 18.212146 41.424325 40.669873L802.224317 870.585546z" p-id="22676"></path></svg>