<?xml version="1.0" standalone="no"?><!DOCTYPE svg PUBLIC "-//W3C//DTD SVG 1.1//EN" "http://www.w3.org/Graphics/SVG/1.1/DTD/svg11.dtd"><svg t="1560794255384" class="icon" style="" viewBox="0 0 1034 1024" version="1.1" xmlns="http://www.w3.org/2000/svg" p-id="3654" xmlns:xlink="http://www.w3.org/1999/xlink" width="201.953125" height="200"><defs><style type="text/css"></style></defs><path d="M1033.244444 652.8c0 6.4 0 19.2 0 32s-6.4 25.6-12.8 38.4c-6.4 12.8-12.8 25.6-19.2 32-6.4 12.8-12.8 19.2-25.6 19.2-6.4 6.4-19.2 6.4-25.6 6.4-6.4 0-12.8 0-19.2-6.4-6.4 0-19.2-6.4-25.6-6.4-12.8 0-19.2 0-32 0s-25.6 6.4-32 6.4c-12.8 6.4-19.2 12.8-32 19.2-19.2 19.2-25.6 38.4-32 64 0 25.6 0 44.8 12.8 64 6.4 12.8 6.4 32-6.4 44.8-6.4 6.4-12.8 12.8-19.2 19.2-6.4 6.4-19.2 12.8-32 19.2-12.8 6.4-25.6 6.4-38.4 12.8-12.8 0-25.6 6.4-32 6.4-6.4 0-12.8 0-19.2-6.4-6.4-6.4-12.8-12.8-12.8-19.2l0 0c-6.4-25.6-19.2-44.8-38.4-57.6-19.2-19.2-44.8-25.6-70.4-25.6S476.444444 921.6 450.844444 940.8c-19.2 19.2-32 38.4-44.8 57.6-6.4 6.4-6.4 12.8-19.2 19.2C386.844444 1024 380.444444 1024 367.644444 1024c-12.8 0-19.2 0-32-6.4-12.8-6.4-25.6-6.4-38.4-12.8-12.8-6.4-25.6-12.8-32-19.2-12.8-6.4-19.2-12.8-25.6-19.2-6.4-6.4-6.4-12.8-6.4-19.2 0-6.4 0-19.2 6.4-32 6.4-19.2 12.8-38.4 6.4-57.6 0-19.2-12.8-44.8-25.6-57.6S194.844444 780.8 182.044444 780.8c-12.8-6.4-25.6-6.4-44.8-6.4-12.8 0-32 6.4-44.8 6.4s-19.2 0-32 0c-6.4 0-12.8-12.8-25.6-19.2-6.4-12.8-12.8-25.6-19.2-38.4C9.244444 710.4 2.844444 697.6 2.844444 684.8s-6.4-25.6 0-32c0-19.2 6.4-25.6 19.2-32C54.044444 614.4 73.244444 595.2 92.444444 576s25.6-44.8 25.6-64c0-25.6-6.4-51.2-25.6-64C73.244444 422.4 54.044444 409.6 34.844444 403.2 28.444444 396.8 22.044444 390.4 15.644444 384 9.244444 377.6 9.244444 364.8 9.244444 358.4c0-6.4 0-19.2 6.4-32 0-12.8 6.4-25.6 12.8-32 6.4-12.8 12.8-19.2 19.2-32 0-6.4 6.4-12.8 12.8-19.2C66.844444 236.8 73.244444 236.8 79.644444 236.8c6.4 0 12.8 0 19.2 6.4 19.2 6.4 44.8 12.8 64 6.4 25.6-6.4 44.8-12.8 64-32 6.4-6.4 12.8-19.2 19.2-32 6.4-12.8 6.4-25.6 6.4-38.4s0-25.6 0-32c0-12.8 0-19.2 0-19.2 0-6.4 0-6.4-6.4-12.8 0-6.4 0-12.8 0-12.8 6.4-19.2 19.2-25.6 25.6-38.4 12.8-6.4 25.6-12.8 38.4-19.2C322.844444 6.4 335.644444 6.4 348.444444 0c12.8 0 25.6 0 32 0C386.844444 0 393.244444 0 399.644444 6.4c6.4 6.4 6.4 12.8 12.8 19.2C418.844444 51.2 431.644444 64 450.844444 83.2c19.2 12.8 38.4 25.6 64 25.6 25.6 0 51.2-6.4 70.4-19.2 19.2-12.8 32-32 44.8-57.6 0-6.4 6.4-12.8 12.8-19.2C649.244444 0 655.644444 0 662.044444 0c12.8 0 19.2 0 32 6.4 12.8 0 25.6 6.4 38.4 12.8 12.8 6.4 25.6 12.8 32 19.2C770.844444 44.8 777.244444 51.2 783.644444 64c6.4 6.4 6.4 12.8 6.4 19.2 0 6.4 0 12.8-6.4 12.8-6.4 19.2-12.8 44.8-6.4 64 6.4 25.6 12.8 44.8 32 64s38.4 25.6 64 32c25.6 0 51.2 0 70.4-12.8 6.4-6.4 12.8-6.4 19.2-6.4 6.4 0 12.8 6.4 19.2 12.8 12.8 12.8 19.2 25.6 32 44.8 6.4 19.2 12.8 44.8 19.2 64 0 12.8 0 19.2-6.4 32-6.4 6.4-12.8 12.8-19.2 12.8C982.044444 409.6 962.844444 422.4 950.044444 448c-19.2 19.2-25.6 44.8-25.6 70.4 0 25.6 6.4 44.8 19.2 64 12.8 19.2 32 32 51.2 38.4 6.4 0 6.4 6.4 12.8 6.4C1020.444444 633.6 1026.844444 640 1033.244444 652.8L1033.244444 652.8 1033.244444 652.8 1033.244444 652.8zM521.244444 748.8c32 0 64-6.4 96-19.2 32-12.8 57.6-32 76.8-51.2 19.2-19.2 38.4-44.8 51.2-76.8C751.644444 576 758.044444 544 758.044444 512s-6.4-64-19.2-96C726.044444 384 706.844444 364.8 687.644444 339.2 668.444444 320 642.844444 300.8 610.844444 288 585.244444 275.2 553.244444 268.8 521.244444 268.8s-64 6.4-96 19.2C399.644444 300.8 374.044444 320 348.444444 339.2 329.244444 364.8 310.044444 390.4 297.244444 416 290.844444 448 284.444444 480 284.444444 512s6.4 64 19.2 96c12.8 32 32 57.6 51.2 76.8 19.2 19.2 44.8 38.4 76.8 51.2C457.244444 742.4 489.244444 748.8 521.244444 748.8L521.244444 748.8 521.244444 748.8 521.244444 748.8z" p-id="3655"></path></svg>