<?xml version="1.0" standalone="no"?><!DOCTYPE svg PUBLIC "-//W3C//DTD SVG 1.1//EN" "http://www.w3.org/Graphics/SVG/1.1/DTD/svg11.dtd"><svg t="1582489623566" class="icon" viewBox="0 0 1024 1024" version="1.1" xmlns="http://www.w3.org/2000/svg" p-id="17922" xmlns:xlink="http://www.w3.org/1999/xlink" width="200" height="200"><defs><style type="text/css"></style></defs><path d="M502.496 63.136c125.888 0 227.936 100.384 227.936 224.192 0 123.84-102.048 224.224-227.936 224.224-125.888 0-227.936-100.384-227.936-224.224C274.56 163.488 376.64 63.136 502.496 63.136L502.496 63.136zM502.496 63.136c125.888 0 227.936 100.384 227.936 224.192 0 123.84-102.048 224.224-227.936 224.224-125.888 0-227.936-100.384-227.936-224.224C274.56 163.488 376.64 63.136 502.496 63.136L502.496 63.136zM417.024 586.304l189.984 0c162.624 0 294.432 129.632 294.432 289.6l0 18.656c0 63.04-131.84 65.44-294.432 65.44l-189.984 0c-162.624 0-294.432-0.096-294.432-65.44l0-18.656C122.592 715.936 254.4 586.304 417.024 586.304L417.024 586.304zM417.024 586.304" p-id="17923"></path></svg>