<?xml version="1.0" standalone="no"?><!DOCTYPE svg PUBLIC "-//W3C//DTD SVG 1.1//EN" "http://www.w3.org/Graphics/SVG/1.1/DTD/svg11.dtd"><svg t="1582489235760" class="icon" viewBox="0 0 1650 1024" version="1.1" xmlns="http://www.w3.org/2000/svg" p-id="10139" xmlns:xlink="http://www.w3.org/1999/xlink" width="322.265625" height="200"><defs><style type="text/css"></style></defs><path d="M1031.868449 709.498079c-129.357308-17.467958-104.571692-96.545874-105.673275-101.188259 0.236053-11.487936 0.393422-60.272322 0.393422-60.272322s71.209467-39.184878 93.005071-103.155371c34.306439-22.267712 47.368065-25.415091 53.112033-51.144921 0 0 2.990011-97.17535-33.913017-97.17535 0 0-15.343476 2.517904-10.386353-20.221915 4.957123-22.739819 2.28185-96.30982-0.236053-121.567543-2.439219-25.257722 4.72107-97.647457-46.895958-107.719072-72.547103-76.009221-157.132934-37.29645-192.540956-36.58829-31.945904 0-27.067466 10.1503-44.220685 12.668203C727.438144 25.729829 748.053481 20.694022 696.436453 30.844321 644.89811 40.994621 626.643307 109.214077 624.125403 134.550484 621.686184 159.808207 615.548794 233.378208 617.201168 271.304134c4.957123 22.739819-28.405102 22.739819-28.405102 22.739819C557.87306 291.998156 567.708621 391.219302 567.708621 391.219302c4.406332 24.392193 2.439219 36.666974 48.15491 55.551252C637.659136 510.741048 716.894421 542.923006 716.894421 542.923006s2.832642 40.994621 3.619487 70.265253C715.950207 610.749039 745.06347 687.859843 602.959275 709.498079c-142.261564 21.559551-165.158752 80.651606-170.19456 95.444291-21.166129 52.87598-21.559551 217.798678-21.559551 217.798678l823.51191-1.652374c0 0 1.416321-189.786999-25.415091-216.146304C1182.391886 778.50438 1173.972645 731.136315 1031.868449 709.498079zM462.507454 702.33779c0.629476-22.425081 1.180267-56.180728 1.180267-56.180728s35.250653-24.706931 52.01045-73.806055C550.791455 557.87306 538.910097 548.430921 542.29353 529.782696c0 0 10.622407-76.009221-13.061626-74.435531 0 0-19.277701-6.609497-15.57953-24.077455C514.990011 402.235131 517.507915 352.506531 515.619487 333.150146c-1.888428-19.356385 7.317658-61.767327-32.260642-69.557092C443.780544 255.803289 459.596127 259.658829 446.455817 257.691717 433.236822 255.724604 441.813432 247.934839 417.342554 247.934839L366.512371 239.594283c-24.470878 0-40.129092 25.179038-53.269402 27.14615C300.023974 268.707546 323.157215 260.760412 296.247118 265.953588 256.668818 273.664669 262.255417 329.137237 260.366989 348.493622 258.399877 367.771323 257.21961 424.26679 260.996465 441.656063S252.970647 457.156908 252.970647 457.156908c-28.169049 0-25.493776 65.386814-25.493776 65.386814 4.406332 19.671123-5.822653 31.237744 20.457968 48.312279 16.759797 49.02044 61.216536 79.077916 61.216536 79.077916s-1.809743 37.453819-1.57369 46.266482c-0.786845 3.540802 9.442139 60.114953-82.618718 77.504226-108.978024 16.523744-127.704933 52.87598-148.32027 73.097895C-4.012909 893.619794 0 1021.403412 0 1021.403412s168.699554 1.337636 310.646381 1.337636c0 0-17.782696-186.560934 75.615798-232.591363C407.82173 757.574305 420.175196 727.831566 462.507454 702.33779zM1648.361457 1020.537882c0 0-13.061626-135.809436-76.560012-173.735362-20.615337-20.221915-39.342247-56.574151-148.32027-73.097895-108.978024-16.602428-87.497157-74.042108-88.284002-77.504226 0.236053-8.812663 3.934225-46.266482 3.934225-46.266482s44.535423-30.057477 61.216536-79.077916c26.280621-17.074535 6.766866-19.513754 11.173198-39.184878 0 0 10.1503-87.103734-11.566621-74.435531 0 0-20.615337 1.967112-16.838482-15.422161s6.845551-73.88474 4.957123-93.241125c-1.888428-19.356385 3.619487-74.750269-35.958814-82.540034-26.910097-5.193177-3.776856 2.753957-16.917166 0.786845-13.218995-1.967112-28.877209-27.14615-53.269402-27.14615l-50.830183 8.419241c-24.470878 0-20.694022 7.71108-33.913017 9.756877-13.218995 1.967112 2.675273-1.888428-36.903028 5.822653-39.5783 7.868449-30.372215 50.279391-32.260642 69.557092C1125.975104 352.506531 1130.224066 402.235131 1131.483018 431.26971c3.776856 17.467958-9.127401 24.077455-9.127401 24.077455-23.684033-1.57369-13.061626 74.435531-13.061626 74.435531 3.462118 18.648225-5.271861 28.090364 29.821423 42.489627 16.759797 49.02044 42.332258 73.806055 42.332258 73.806055s1.258952 33.834332 1.967112 56.180728c42.332258 25.493776 57.046258 55.236515 78.605809 87.811895 85.215307-5.350546 71.602889 232.591363 71.602889 232.591363C1475.648993 1022.741048 1648.361457 1020.537882 1648.361457 1020.537882z" p-id="10140"></path></svg>