<?xml version="1.0" standalone="no"?><!DOCTYPE svg PUBLIC "-//W3C//DTD SVG 1.1//EN" "http://www.w3.org/Graphics/SVG/1.1/DTD/svg11.dtd"><svg t="1582489951433" class="icon" viewBox="0 0 1024 1024" version="1.1" xmlns="http://www.w3.org/2000/svg" p-id="21802" xmlns:xlink="http://www.w3.org/1999/xlink" width="200" height="200"><defs><style type="text/css"></style></defs><path d="M922.122705 347.051227c0-19.764136-16.021905-35.785018-35.785018-35.785018L99.064226 311.26621c-19.764136 0-35.785018 16.020882-35.785018 35.785018l0 533.198811c0 19.763113 16.020882 35.785018 35.785018 35.785018l787.273461 0c19.763113 0 35.785018-16.021905 35.785018-35.785018L922.122705 744.266971 696.67607 744.266971l0-0.022513c-0.596588 0.008186-1.191128 0.022513-1.788739 0.022513-72.136947 0-130.615826-58.478879-130.615826-130.615826s58.478879-130.615826 130.615826-130.615826c0.598634 0 1.193175 0.014326 1.788739 0.022513l0-0.022513 225.446635 0L922.122705 347.051227zM617.949031 613.651145c0 42.491767 34.446533 76.9383 76.9383 76.9383s76.9383-34.446533 76.9383-76.9383-34.446533-76.9383-76.9383-76.9383S617.949031 571.159378 617.949031 613.651145zM836.231499 277.968849l-44.421722-155.503657c-4.469801-15.647375-20.828374-24.724101-36.537148-20.273742L134.930085 277.968849 836.231499 277.968849z" p-id="21803"></path></svg>