<?xml version="1.0" standalone="no"?><!DOCTYPE svg PUBLIC "-//W3C//DTD SVG 1.1//EN" "http://www.w3.org/Graphics/SVG/1.1/DTD/svg11.dtd"><svg t="1560792988192" class="icon" style="" viewBox="0 0 1024 1024" version="1.1" xmlns="http://www.w3.org/2000/svg" p-id="4216" xmlns:xlink="http://www.w3.org/1999/xlink" width="200" height="200"><defs><style type="text/css"></style></defs><path d="M832 405.344h-224a32 32 0 0 0 0 64h224a32 32 0 0 0 0-64zM832 565.344h-224a32 32 0 0 0 0 64h224a32 32 0 0 0 0-64zM404.352 635.36v-20.864c30.816-19.968 60.544-55.04 76.768-98.048 11.488-4.992 19.744-19.104 26.4-44.256 5.152-19.488-3.104-32.352-14.272-39.488C487.744 340.832 434.144 288 352 288c-83.296 0-139.456 54.368-143.776 148.672-10.112 8.352-16.608 21.76-11.552 40.864 7.2 27.232 16.096 42.88 28.352 48.864 17.312 38.656 45.664 70.016 74.624 88.384v20.576C219.04 644.032 160 672.256 160 705.728c0 40.384 384 40.384 384 0 0-33.472-59.04-61.696-139.648-70.368z" p-id="4217"></path><path d="M896 128H128a96 96 0 0 0-96 96v576a96 96 0 0 0 96 96h768a96 96 0 0 0 96-96V224a96 96 0 0 0-96-96z m32 672a32 32 0 0 1-32 32H128a32 32 0 0 1-32-32V224a32 32 0 0 1 32-32h768a32 32 0 0 1 32 32v576z" p-id="4218"></path></svg>